<svg width="512" height="512" viewBox="0 0 512 512" fill="none" xmlns="http://www.w3.org/2000/svg">
  <rect width="512" height="512" rx="112" fill="#171512"/>
  <path d="M154 150H358L333 382H179L154 150Z" fill="#201D19" stroke="#F7EFE4" stroke-width="20" stroke-linejoin="round"/>
  <path d="M190 198H322L308 338H204L190 198Z" fill="#5BBDB5"/>
  <path d="M213 234H299" stroke="#FFFDF8" stroke-width="18" stroke-linecap="round"/>
  <path d="M223 280H289" stroke="#FFFDF8" stroke-width="18" stroke-linecap="round"/>
  <path d="M256 104C256 104 218 126 218 156C218 178 235 194 256 194C277 194 294 178 294 156C294 126 256 104 256 104Z" fill="#B95D36"/>
  <path d="M250 135C266 153 271 168 266 187" stroke="#FFF4E6" stroke-width="10" stroke-linecap="round"/>
</svg>
